<svg viewBox="0 0 100 100" xmlns="http://www.w3.org/2000/svg">
  <mask id="kw"><rect width="100" height="100" fill="white"/><rect x="48.2" y="50" width="3.6" height="13" rx="0.8" fill="black"/></mask>
  <g mask="url(#kw)">
    <rect x="47.6" y="2" width="4.8" height="9" fill="#f7a81b" transform="rotate(0 50 50)"/>
    <rect x="47.6" y="2" width="4.8" height="9" fill="#f7a81b" transform="rotate(15 50 50)"/>
    <rect x="47.6" y="2" width="4.8" height="9" fill="#f7a81b" transform="rotate(30 50 50)"/>
    <rect x="47.6" y="2" width="4.8" height="9" fill="#f7a81b" transform="rotate(45 50 50)"/>
    <rect x="47.6" y="2" width="4.8" height="9" fill="#f7a81b" transform="rotate(60 50 50)"/>
    <rect x="47.6" y="2" width="4.8" height="9" fill="#f7a81b" transform="rotate(75 50 50)"/>
    <rect x="47.6" y="2" width="4.8" height="9" fill="#f7a81b" transform="rotate(90 50 50)"/>
    <rect x="47.6" y="2" width="4.8" height="9" fill="#f7a81b" transform="rotate(105 50 50)"/>
    <rect x="47.6" y="2" width="4.8" height="9" fill="#f7a81b" transform="rotate(120 50 50)"/>
    <rect x="47.6" y="2" width="4.8" height="9" fill="#f7a81b" transform="rotate(135 50 50)"/>
    <rect x="47.6" y="2" width="4.8" height="9" fill="#f7a81b" transform="rotate(150 50 50)"/>
    <rect x="47.6" y="2" width="4.8" height="9" fill="#f7a81b" transform="rotate(165 50 50)"/>
    <rect x="47.6" y="2" width="4.8" height="9" fill="#f7a81b" transform="rotate(180 50 50)"/>
    <rect x="47.6" y="2" width="4.8" height="9" fill="#f7a81b" transform="rotate(195 50 50)"/>
    <rect x="47.6" y="2" width="4.8" height="9" fill="#f7a81b" transform="rotate(210 50 50)"/>
    <rect x="47.6" y="2" width="4.8" height="9" fill="#f7a81b" transform="rotate(225 50 50)"/>
    <rect x="47.6" y="2" width="4.8" height="9" fill="#f7a81b" transform="rotate(240 50 50)"/>
    <rect x="47.6" y="2" width="4.8" height="9" fill="#f7a81b" transform="rotate(255 50 50)"/>
    <rect x="47.6" y="2" width="4.8" height="9" fill="#f7a81b" transform="rotate(270 50 50)"/>
    <rect x="47.6" y="2" width="4.8" height="9" fill="#f7a81b" transform="rotate(285 50 50)"/>
    <rect x="47.6" y="2" width="4.8" height="9" fill="#f7a81b" transform="rotate(300 50 50)"/>
    <rect x="47.6" y="2" width="4.8" height="9" fill="#f7a81b" transform="rotate(315 50 50)"/>
    <rect x="47.6" y="2" width="4.8" height="9" fill="#f7a81b" transform="rotate(330 50 50)"/>
    <rect x="47.6" y="2" width="4.8" height="9" fill="#f7a81b" transform="rotate(345 50 50)"/>
    <circle cx="50" cy="50" r="41" fill="none" stroke="#f7a81b" stroke-width="7"/>
    <rect x="46.6" y="12" width="6.8" height="26" fill="#f7a81b" transform="rotate(0 50 50)"/>
    <rect x="46.6" y="12" width="6.8" height="26" fill="#f7a81b" transform="rotate(60 50 50)"/>
    <rect x="46.6" y="12" width="6.8" height="26" fill="#f7a81b" transform="rotate(120 50 50)"/>
    <rect x="46.6" y="12" width="6.8" height="26" fill="#f7a81b" transform="rotate(180 50 50)"/>
    <rect x="46.6" y="12" width="6.8" height="26" fill="#f7a81b" transform="rotate(240 50 50)"/>
    <rect x="46.6" y="12" width="6.8" height="26" fill="#f7a81b" transform="rotate(300 50 50)"/>
    <circle cx="50" cy="50" r="13" fill="#f7a81b"/>
  </g>
</svg>
